# xmcd
#
# Track frame offsets:
#  150
#  15270
#  27540
#  42477
#  62148
#  73536
#  92168
#  107401
#  135650
#  157389
#  171141
#  191996
#  208853
#  237691
#
# Disc length: 3398 seconds
#
# Revision: 0
# Processed by: cddbd v1.5.1PL2 Copyright (c) Steve Scherf et al.
# Submitted via: Collectorz.com_Music_Collector 6.9
#
DISCID=d00d440e
DTITLE=Steve Earle - Great Amarican Music Hall - Disc 1
DYEAR=1996
DGENRE=
TTITLE0=Mystery Train Pt.2
TTITLE1=Hometown Blues
TTITLE2=The Devil's Right Hand
TTITLE3=Tom Ames Prayer
TTITLE4=Angel Is The Devil
TTITLE5=Sometimes She Forgets
TTITLE6=You Know The Rest
TTITLE7=Goodbye
TTITLE8=Now She's Gone
TTITLE9=My Old Friend The Blues
TTITLE10=Someday
TTITLE11=South Nashville Blues
TTITLE12=Little Rock and Roller
TTITLE13=Regular Guy
EXTD=
EXTT0=
EXTT1=
EXTT2=
EXTT3=
EXTT4=
EXTT5=
EXTT6=
EXTT7=
EXTT8=
EXTT9=
EXTT10=
EXTT11=
EXTT12=
EXTT13=
PLAYORDER=
